<?xml version="1.0" standalone="no"?>
<!DOCTYPE svg PUBLIC "-//W3C//DTD SVG 20010904//EN"
 "http://www.w3.org/TR/2001/REC-SVG-20010904/DTD/svg10.dtd">
<svg version="1.0" xmlns="http://www.w3.org/2000/svg"
 width="580.000000pt" height="580.000000pt" viewBox="0 0 580.000000 580.000000"
 preserveAspectRatio="xMidYMid meet">
<metadata>
Created by potrace 1.14, written by Peter Selinger 2001-2017
</metadata>
<g transform="translate(0.000000,580.000000) scale(0.100000,-0.100000)"
fill="#000000" stroke="none">
<path d="M723 4287 c-7 -11 -5 -1687 2 -1747 2 -25 10 -70 17 -100 6 -30 11
-61 9 -68 -1 -8 2 -19 8 -26 5 -6 12 -23 14 -36 3 -14 18 -56 33 -95 94 -236
258 -413 485 -527 92 -45 248 -90 359 -103 68 -8 251 -8 305 0 22 3 52 8 67
10 15 2 44 9 65 14 21 6 41 11 46 11 4 0 23 6 42 14 20 9 37 15 40 16 36 5
148 62 223 112 128 86 233 206 315 359 35 65 94 228 102 279 2 14 6 36 9 50 3
14 8 57 12 95 9 93 11 1723 2 1738 -5 9 -71 12 -228 12 -121 0 -221 -2 -222
-5 -1 -3 -2 -369 -4 -815 -2 -957 -1 -898 -26 -1005 -20 -84 -83 -230 -99
-230 -5 0 -9 -5 -9 -12 0 -15 -130 -138 -146 -138 -7 0 -19 -6 -26 -13 -28
-27 -133 -63 -208 -72 -19 -2 -37 -4 -40 -5 -13 -4 -159 0 -190 5 -110 20
-221 73 -296 143 -43 40 -117 135 -119 152 -1 3 -11 26 -22 52 -31 69 -52 157
-59 251 -4 45 -7 443 -7 885 0 579 -3 802 -11 803 -54 6 -439 2 -443 -4z"/>
<path d="M3114 4291 c-2 -2 -4 -94 -4 -203 l0 -198 418 0 417 0 0 -1127 c-1
-621 1 -1135 3 -1143 3 -13 34 -15 215 -14 117 1 219 2 229 3 15 1 16 86 17
1129 0 620 0 1133 0 1139 1 10 94 13 414 15 l412 3 2 50 c1 28 2 55 3 60 2 10
2 40 1 120 -1 22 -1 48 -1 58 0 9 0 24 0 32 0 8 0 26 1 40 1 14 -2 29 -6 33
-7 7 -2113 10 -2121 3z"/>
</g>
</svg>
